<svg width="459" height="512" viewBox="0 0 459 512" fill="none" xmlns="http://www.w3.org/2000/svg">
<path d="M229.186 265.869C302.329 265.869 362.12 206.078 362.12 132.934C362.12 59.7911 302.329 0 229.186 0C156.043 0 96.2525 59.7911 96.2525 132.934C96.2525 206.078 156.044 265.869 229.186 265.869ZM457.323 372.1C453.839 363.392 449.196 355.266 443.971 347.719C417.268 308.244 376.054 282.122 329.614 275.737C323.809 275.157 317.424 276.317 312.779 279.8C288.398 297.796 259.374 307.083 229.187 307.083C199 307.083 169.976 297.796 145.595 279.8C140.95 276.317 134.565 274.576 128.76 275.737C82.3203 282.122 40.5248 308.244 14.4025 347.719C9.17808 355.266 4.53364 363.973 1.05142 372.1C-0.689694 375.583 -0.109695 379.647 1.63142 383.13C6.27586 391.257 12.0803 399.384 17.3047 406.35C25.4314 417.38 34.1392 427.248 44.0081 436.536C52.1348 444.662 61.4225 452.209 70.7114 459.756C116.57 494.006 171.718 512 228.607 512C285.496 512 340.644 494.004 386.503 459.756C395.79 452.79 405.078 444.662 413.206 436.536C422.494 427.248 431.781 417.379 439.909 406.35C445.714 398.803 450.939 391.257 455.583 383.13C458.484 379.647 459.064 375.582 457.323 372.1Z" fill="#CCDD47"/>
</svg>
