<svg width="539" height="485" viewBox="0 0 539 485" fill="none" xmlns="http://www.w3.org/2000/svg">
<path d="M238.009 67.3611C245.45 67.3611 251.482 61.3294 251.482 53.8888C251.482 46.4483 245.45 40.4166 238.009 40.4166C230.569 40.4166 224.537 46.4483 224.537 53.8888C224.537 61.3294 230.569 67.3611 238.009 67.3611Z" fill="white"/>
<path d="M399.676 282.917C407.116 282.917 413.148 276.885 413.148 269.444C413.148 262.004 407.116 255.972 399.676 255.972C392.235 255.972 386.204 262.004 386.204 269.444C386.204 276.885 392.235 282.917 399.676 282.917Z" fill="white"/>
<path d="M480.509 390.694C487.95 390.694 493.982 384.663 493.982 377.222C493.982 369.782 487.95 363.75 480.509 363.75C473.069 363.75 467.037 369.782 467.037 377.222C467.037 384.663 473.069 390.694 480.509 390.694Z" fill="white"/>
<path d="M318.842 175.139C326.283 175.139 332.315 169.107 332.315 161.667C332.315 154.226 326.283 148.194 318.842 148.194C311.402 148.194 305.37 154.226 305.37 161.667C305.37 169.107 311.402 175.139 318.842 175.139Z" fill="white"/>
<path d="M62.8704 242.5H296.389V296.389H62.8704V242.5ZM62.8704 134.722H215.556V188.611H62.8704V134.722ZM233.519 134.722H251.481V188.611H233.519V134.722ZM395.185 350.278H413.157V404.167H395.185V350.278ZM53.8889 458.056H0V485H538.907L538.889 458.056H53.8889ZM62.8704 350.278H377.222V404.167H62.8704V350.278ZM44.9074 413.148V0H17.963V440.093H44.9074V413.148ZM62.8704 26.9444H134.722V80.8333H62.8704V26.9444ZM152.685 26.9444H170.648V80.8333H152.685V26.9444ZM314.352 242.5H332.324V296.389H314.352V242.5Z" fill="white"/>
</svg>
