<svg width="413" height="413" viewBox="0 0 413 413" fill="none" xmlns="http://www.w3.org/2000/svg">
<path d="M401.864 179.635L401.836 179.607L233.365 11.1421C226.184 3.95657 216.636 0 206.481 0C196.326 0 186.778 3.95415 179.594 11.1389L11.2106 179.518C11.1542 179.574 11.0977 179.634 11.0412 179.691C-3.70576 194.522 -3.67995 218.586 11.1138 233.38C17.8719 240.142 26.799 244.058 36.3431 244.468C36.7303 244.506 37.1215 244.524 37.5152 244.524H44.2297V368.505C44.2297 393.039 64.1908 413 88.7304 413H154.641C161.322 413 166.741 407.583 166.741 400.9V303.7C166.741 292.505 175.848 283.399 187.043 283.399H225.919C237.115 283.399 246.221 292.506 246.221 303.7V400.9C246.221 407.583 251.637 413 258.32 413H324.232C348.771 413 368.732 393.039 368.732 368.506V244.525H374.959C385.111 244.525 394.659 240.571 401.846 233.387C416.656 218.568 416.661 194.463 401.864 179.635Z" fill="#CCDD47"/>
</svg>
