<svg width="335" height="462" viewBox="0 0 335 462" fill="none" xmlns="http://www.w3.org/2000/svg">
<path d="M305.153 40.72C292.673 29.72 281.913 20.2 281.913 5.8C281.849 2.624 279.289 0.064 276.113 0C267.673 0 218.153 53.04 218.153 89C218.141 121.099 244.152 147.13 276.251 147.142C308.35 147.154 334.381 121.143 334.393 89.044C334.393 89.029 334.393 89.014 334.393 89C334.393 66.6 318.873 52.84 305.153 40.72Z" fill="#CCDD47"/>
<path d="M228.713 179.88C193.313 148.6 159.673 119.08 159.673 74C159.717 70.687 157.067 67.964 153.754 67.92C153.7 67.919 153.647 67.919 153.593 67.92C139.593 67.92 0.792971 210.12 0.792971 307.92C0.777971 392.552 69.374 461.172 154.006 461.187C238.638 461.202 307.258 392.606 307.273 307.974C307.273 307.956 307.273 307.938 307.273 307.92C307.433 249.36 267.433 214.04 228.713 179.88ZM154.193 417.08C151.067 417.08 148.533 414.546 148.533 411.42C148.533 408.294 151.067 405.76 154.193 405.76C203.401 405.716 243.287 365.848 243.353 316.64C243.353 313.514 245.887 310.98 249.013 310.98C252.139 310.98 254.673 313.514 254.673 316.64C254.607 372.1 209.653 417.036 154.193 417.08Z" fill="#CCDD47"/>
</svg>
