<svg width="70" height="70" viewBox="0 0 70 70" fill="none" xmlns="http://www.w3.org/2000/svg">
<path d="M68.1337 11.3596L58.5885 1.80642C56.1836 -0.600598 51.9998 -0.605222 49.5855 1.81104L6.82507 44.9934C6.63618 45.1842 6.49832 45.4195 6.42418 45.6775L0.0608487 67.9686C-0.00656776 68.2054 -0.0181467 68.4547 0.0270215 68.6968C0.0721897 68.9389 0.172875 69.1673 0.321169 69.3639C0.469462 69.5606 0.661326 69.7201 0.88169 69.8301C1.10205 69.9401 1.34492 69.9975 1.5912 69.9978C1.73721 69.9978 1.88487 69.9775 2.02774 69.9371L24.2997 63.5683C24.5576 63.494 24.7927 63.3561 24.9832 63.1671L68.1337 20.3656C69.3362 19.1622 69.9979 17.5637 69.9979 15.8627C69.9979 14.1617 69.3362 12.563 68.1337 11.3596ZM42.6531 13.3833L48.509 19.2393L17.9353 49.8131L15.7411 45.4232C15.6089 45.159 15.4058 44.9368 15.1544 44.7815C14.9031 44.6262 14.6135 44.5439 14.318 44.5439H11.7704L42.6531 13.3833ZM3.90754 66.0904L5.97973 58.8365L11.1613 64.0181L3.90754 66.0904ZM22.2722 60.844L14.6607 63.0184L6.97944 55.3371L9.15379 47.7256H13.3344L16.0764 53.2097C16.2304 53.5176 16.4801 53.7673 16.788 53.9212L22.2721 56.6632L22.2722 60.844ZM25.4541 58.2276V55.6799C25.4541 55.0771 25.1139 54.5272 24.5747 54.2568L20.1848 52.0626L50.7585 21.4889L56.6145 27.3449L25.4541 58.2276ZM65.8888 18.1534L58.8741 25.1054L44.8924 11.1237L51.8398 4.11381C53.0423 2.91127 55.1365 2.91127 56.339 4.11381L65.8841 13.6589C66.4853 14.2601 66.8163 15.0587 66.8163 15.9085C66.8163 16.7583 66.4853 17.5568 65.8888 18.1534Z" fill="black"/>
</svg>
