<svg width="513" height="463" viewBox="0 0 513 463" fill="none" xmlns="http://www.w3.org/2000/svg">
<path d="M255.874 42.497C144.265 -55.121 2.35599 30.649 0.0289935 146.924C-0.564007 176.557 7.98999 205.422 25.017 232.033H135.381L155.011 199.315C160.711 189.816 174.505 189.51 180.528 198.98L221.945 264.063L282.318 136.612C287.583 125.491 303.274 125.138 309.081 135.922L360.833 232.033H486.731C579.993 86.273 395.676 -79.778 255.874 42.497Z" fill="#CCDD47"/>
<path d="M338.667 254.144L296.731 176.263L237.43 301.453C232.385 312.104 217.546 313.029 211.219 303.085L168.249 235.562L156.736 254.75C154.025 259.268 149.143 262.032 143.874 262.032H48.746C51.728 265.153 35.835 249.292 245.294 457.666C251.144 463.487 260.601 463.488 266.452 457.666C472.688 252.498 460.024 265.147 463 262.032H351.874C346.355 262.033 341.283 259.003 338.667 254.144Z" fill="#CCDD47"/>
</svg>
