<svg width="512" height="431" viewBox="0 0 512 431" fill="none" xmlns="http://www.w3.org/2000/svg">
<path d="M497.171 355.986L350.961 242.173C335.638 229.563 313.456 229.851 298.467 242.856L192.332 328.43C189.807 329.638 187.467 329.976 185.719 328.729C178.751 323.749 151.199 236.455 145.889 219.196C145.381 217.545 145.174 215.816 145.278 214.092L252.561 161.859C258.516 158.96 263.5 154.392 266.905 148.711C270.309 143.03 271.989 136.481 271.738 129.863C271.487 123.245 269.317 116.842 265.491 111.435C261.666 106.028 256.351 101.851 250.194 99.4111L111.772 44.5728C111.242 44.3634 110.707 44.1672 110.168 43.9843C109.989 43.9219 109.808 43.8711 109.627 43.8129C109.268 43.6975 108.912 43.5822 108.553 43.4795C108.339 43.4182 108.123 43.3663 107.909 43.3091C107.582 43.2224 107.258 43.1345 106.931 43.0583C106.702 43.0054 106.472 42.9599 106.243 42.9112C105.931 42.8432 105.618 42.7796 105.304 42.7207C105.067 42.6773 104.83 42.6414 104.593 42.6043C104.287 42.553 103.98 42.5064 103.673 42.4646C103.432 42.4318 103.189 42.4064 102.948 42.3789C102.646 42.3461 102.345 42.3133 102.044 42.2879C101.8 42.2667 101.552 42.2519 101.308 42.2371C100.764 42.2022 100.22 42.1814 99.6757 42.1746C99.5201 42.1725 99.3624 42.1641 99.2048 42.1641C99.118 42.1641 99.0312 42.1725 98.9455 42.1736C98.1951 42.1789 97.449 42.2032 96.7061 42.2582C96.6447 42.2625 96.5865 42.2709 96.5262 42.2762C95.8288 42.3313 95.1345 42.4117 94.4424 42.5101C94.273 42.5345 94.1016 42.5577 93.9323 42.5842C93.201 42.6985 92.4729 42.8319 91.7532 42.9948C91.6601 43.016 91.5701 43.0403 91.4781 43.0615C90.8261 43.2139 90.1784 43.3864 89.5371 43.5758C89.3826 43.6213 89.2249 43.6658 89.0693 43.7155C88.3666 43.9346 87.6703 44.1717 86.9845 44.4352C86.8734 44.4786 86.7643 44.5262 86.6532 44.5696C86.0457 44.8098 85.4446 45.0681 84.852 45.3422C84.7133 45.4067 84.5736 45.4681 84.4361 45.5337C83.7736 45.8512 83.1216 46.1888 82.4803 46.5476C82.3607 46.6153 82.2401 46.6873 82.1205 46.7571C81.5585 47.082 81.004 47.4217 80.4611 47.7784C80.3457 47.8546 80.2261 47.9265 80.1108 48.0049C79.5012 48.4144 78.9043 48.8462 78.3201 49.2971C78.1963 49.3923 78.0767 49.4918 77.9529 49.5881C77.4417 49.9955 76.938 50.4157 76.448 50.8538C76.3559 50.9353 76.2606 51.0136 76.1696 51.0962C75.497 51.7115 74.8498 52.3541 74.2297 53.0223C73.7683 53.5165 73.3196 54.0235 72.8867 54.5473C72.8233 54.6235 72.7576 54.6965 72.6941 54.7727C72.1058 55.4997 71.5483 56.251 71.0231 57.0248C70.6154 57.6186 70.2265 58.2249 69.8568 58.843C69.8272 58.8959 69.7912 58.9457 69.7594 58.9986C69.2739 59.833 68.8238 60.6874 68.4101 61.5597C68.0647 62.2759 67.7438 63.0037 67.4481 63.7419C60.4992 81.276 69.0832 101.119 86.6162 108.065L139.184 128.891C134.783 130.363 128.943 132.314 122.421 134.493L82.4263 118.649C71.1183 114.169 62.2328 105.556 57.4058 94.3937C52.5768 83.2317 52.3873 70.8569 56.8671 59.5521C63.7874 42.0762 80.4071 30.783 99.2048 30.783H99.2069C104.95 30.783 110.588 31.8625 115.964 33.9918L154.4 49.2187C142.244 20.3047 113.655 0 80.3224 0C35.9624 0 0 35.9613 0 80.3235C0 116.11 23.4119 146.405 55.7506 156.786C34.5432 163.935 -4.13798 183.814 32.7292 293.932C66.6798 395.35 99.2989 422.398 129.939 429.596C134.005 430.959 185.442 430.834 185.442 430.834C195.234 430.834 201.484 428.175 208.88 421.758L325.814 326.815L445.483 418.792C462.828 433.062 488.458 430.575 502.731 413.231C517.006 395.889 514.513 370.259 497.171 355.986ZM153.011 134.37L152.596 134.571C152.535 134.424 152.475 134.277 152.412 134.132L153.011 134.37Z" fill="#CCDD47"/>
</svg>
