<svg width="48" height="20" viewBox="0 0 48 20" fill="none" xmlns="http://www.w3.org/2000/svg">
<g clip-path="url(#clip0_1_2)">
<path d="M42.1941 16.5435C41.9374 16.5435 41.6897 16.4054 41.5621 16.1627C41.3772 15.8139 41.5112 15.3821 41.8599 15.198C44.6215 13.7387 46.1429 11.9851 46.1429 10.2608C46.1429 5.66325 36.0027 1.77862 24 1.77862C11.9973 1.77862 1.85713 5.66325 1.85713 10.2608C1.85713 11.9837 3.38057 13.7366 6.14564 15.198C6.49441 15.3821 6.62834 15.8139 6.44349 16.1627C6.26004 16.5122 5.82756 16.6461 5.47879 16.4605C2.17452 14.716 0.428558 12.5717 0.428558 10.2608C0.428558 4.70342 10.7822 0.350048 24 0.350048C37.2178 0.350048 47.5714 4.70342 47.5714 10.2608C47.5714 12.5738 45.8269 14.7174 42.5268 16.4605C42.4208 16.517 42.3064 16.5435 42.1941 16.5435Z" fill="white"/>
<path d="M2.84697 17.3185C2.53028 17.3185 2.2408 17.1058 2.1564 16.7849C2.05665 16.4033 2.28545 16.0127 2.667 15.913L4.94239 15.3187L4.35855 13.0558C4.2595 12.6736 4.48899 12.2843 4.87124 12.186C5.25071 12.0841 5.64203 12.3164 5.74108 12.6987L6.5035 15.6507C6.60255 16.0316 6.37375 16.4208 5.9929 16.5205L3.02833 17.2955C2.96764 17.3108 2.90696 17.3185 2.84697 17.3185ZM13.2249 17.4459L14.6729 17.2704C14.7193 17.6392 14.8437 17.9213 15.0455 18.1169C15.2481 18.3118 15.4931 18.4099 15.7807 18.4099C16.0892 18.4099 16.3489 18.2924 16.5607 18.0582C16.7718 17.8239 16.8769 17.5085 16.8769 17.1104C16.8769 16.7347 16.7757 16.4363 16.5739 16.2159C16.3713 15.9964 16.1247 15.8866 15.834 15.8866C15.6423 15.8866 15.4135 15.9237 15.1468 15.9979L15.3122 14.7788C15.7165 14.7896 16.025 14.7015 16.2384 14.5152C16.451 14.3288 16.5576 14.0815 16.5576 13.773C16.5576 13.5102 16.4796 13.3007 16.3234 13.1445C16.1672 12.9883 15.9593 12.9102 15.7003 12.9102C15.4452 12.9102 15.2272 12.9992 15.0455 13.1762C14.8646 13.354 14.7548 13.613 14.7154 13.9539L13.337 13.7197C13.4329 13.2473 13.5774 12.87 13.7707 12.5879C13.964 12.3057 14.2338 12.0846 14.5801 11.923C14.9257 11.7615 15.3138 11.6803 15.7428 11.6803C16.478 11.6803 17.0671 11.9145 17.5109 12.383C17.8765 12.7665 18.059 13.1994 18.059 13.6826C18.059 14.3675 17.6848 14.9141 16.9357 15.3223C17.3825 15.4181 17.7405 15.6323 18.0087 15.9662C18.2762 16.2994 18.4107 16.7022 18.4107 17.1746C18.4107 17.8595 18.1602 18.4432 17.6601 18.9263C17.1591 19.4088 16.5368 19.65 15.7908 19.65C15.0849 19.65 14.4989 19.4466 14.0343 19.0408C13.5689 18.6341 13.2999 18.103 13.2249 17.4459ZM24.4106 13.6238L22.9626 13.7831C22.927 13.4854 22.8351 13.2651 22.6858 13.1228C22.5366 12.9814 22.3434 12.9102 22.1053 12.9102C21.7891 12.9102 21.5224 13.0525 21.3044 13.3362C21.0856 13.6199 20.948 14.2113 20.8915 15.1089C21.2642 14.669 21.7272 14.4487 22.2808 14.4487C22.9054 14.4487 23.4404 14.6868 23.8864 15.1622C24.3317 15.6377 24.5544 16.2515 24.5544 17.0045C24.5544 17.8031 24.3201 18.4432 23.8517 18.9263C23.3832 19.4088 22.7817 19.65 22.0465 19.65C21.2587 19.65 20.6109 19.3438 20.1038 18.7315C19.5958 18.1193 19.3423 17.1158 19.3423 15.7212C19.3423 14.291 19.6067 13.2597 20.1355 12.6281C20.6642 11.9965 21.3515 11.6803 22.1957 11.6803C22.7887 11.6803 23.2796 11.8465 23.6677 12.1781C24.0565 12.5098 24.3039 12.9922 24.4106 13.6238ZM21.0191 16.887C21.0191 17.3732 21.1312 17.749 21.3546 18.0133C21.578 18.2777 21.8339 18.4099 22.1215 18.4099C22.3983 18.4099 22.6286 18.3017 22.8134 18.0852C22.9982 17.8688 23.0902 17.5132 23.0902 17.0199C23.0902 16.5128 22.9912 16.1409 22.7918 15.9052C22.5931 15.6686 22.3449 15.5511 22.0465 15.5511C21.7597 15.5511 21.5162 15.6632 21.3175 15.8889C21.1188 16.1147 21.0191 16.4471 21.0191 16.887ZM27.9343 11.6803C28.6904 11.6803 29.281 11.9501 29.707 12.4897C30.2149 13.1283 30.4684 14.1881 30.4684 15.6678C30.4684 17.1444 30.2125 18.2058 29.7015 18.8514C29.2794 19.384 28.6904 19.65 27.9343 19.65C27.1751 19.65 26.5628 19.3585 26.0974 18.7741C25.6328 18.1904 25.4001 17.1498 25.4001 15.6524C25.4001 14.1827 25.656 13.1252 26.167 12.4789C26.5891 11.947 27.1782 11.6803 27.9343 11.6803ZM27.9343 12.9211C27.7534 12.9211 27.5918 12.9783 27.4496 13.0942C27.3081 13.2094 27.1975 13.4158 27.1202 13.7142C27.0166 14.1008 26.9656 14.7525 26.9656 15.6678C26.9656 16.5839 27.0112 17.2124 27.104 17.5549C27.196 17.8974 27.3127 18.1254 27.4527 18.2391C27.5926 18.3527 27.7534 18.4099 27.9343 18.4099C28.1152 18.4099 28.2768 18.352 28.419 18.2368C28.5605 18.1216 28.671 17.9144 28.7491 17.6168C28.8519 17.2333 28.903 16.5839 28.903 15.6678C28.903 14.7525 28.8573 14.1232 28.7646 13.7807C28.6726 13.4383 28.5566 13.2094 28.4159 13.0942C28.276 12.9783 28.1152 12.9211 27.9343 12.9211ZM33.3471 12.4057C32.1655 12.4057 31.2042 11.4445 31.2042 10.2629C31.2042 9.08122 32.1655 8.12 33.3471 8.12C34.5287 8.12 35.49 9.08122 35.49 10.2629C35.49 11.4445 34.5287 12.4057 33.3471 12.4057ZM33.3471 9.54857C32.953 9.54857 32.6328 9.86874 32.6328 10.2629C32.6328 10.657 32.953 10.9771 33.3471 10.9771C33.7412 10.9771 34.0614 10.657 34.0614 10.2629C34.0614 9.86874 33.7412 9.54857 33.3471 9.54857Z" fill="white"/>
</g>
<defs>
<clipPath id="clip0_1_2">
<rect width="48" height="20" fill="white"/>
</clipPath>
</defs>
</svg>
