<svg width="512" height="395" viewBox="0 0 512 395" fill="none" xmlns="http://www.w3.org/2000/svg">
<path d="M278.054 224.68L298.861 230.302L272.658 245.479L258.055 301.764C262.245 304.168 266.99 305.435 271.82 305.44C276.511 305.44 281.264 304.242 285.62 301.722L383.845 244.826C388.559 242.096 392.358 238.031 394.765 233.144C397.171 228.258 398.077 222.768 397.368 217.367C396.659 211.966 394.366 206.896 390.78 202.797C387.193 198.697 382.473 195.751 377.214 194.331L306.008 175.089C297.226 185.012 289.135 195.511 282.773 206.495L278.054 224.68ZM86.1906 147.75H189.943V150.44H86.1906V147.75ZM64.5751 163.891H168.328V166.581H64.5751V163.891ZM0 155.82H148.875V158.509H0V155.82ZM394.993 89.8124C417.175 105.936 448.222 101.022 464.345 78.8413C480.464 56.6587 475.554 25.6124 453.372 9.48903C431.191 -6.62992 400.14 -1.71811 384.019 20.4645C367.898 42.6471 372.814 73.6934 394.993 89.8124Z" fill="white"/>
<path d="M315.19 84.0687C319.022 79.8366 324.311 77.2075 329.998 76.7076C333.126 76.4331 336.276 76.8075 339.252 77.8072C342.228 78.807 344.966 80.4106 347.293 82.5175L368.602 101.86C373.871 89.8411 374.094 76.8135 366.583 67.8593C361.563 61.8773 354.012 57.0471 344.959 54.6817C344.298 54.4521 343.624 54.2627 342.94 54.1146L257.687 36.087C253.822 35.2682 249.794 35.7701 246.248 37.5124L164.462 77.7072C160.3 79.7958 157.133 83.4439 155.648 87.8572C154.164 92.2705 154.484 97.0915 156.537 101.27C158.591 105.449 162.213 108.647 166.614 110.168C171.014 111.689 175.838 111.41 180.034 109.391L256.348 71.8885L281.441 77.1953C253.521 99.2168 236.29 120.23 215.855 156.543C205.067 179.661 210.614 195.059 220.606 206.226L198.213 292.547L103.397 342.923C89.9462 350.068 84.8336 366.767 91.9806 380.22C97.3426 390.313 108.082 395.711 118.795 394.759C122.464 394.432 126.03 393.37 129.28 391.637L234.807 335.568C238.183 333.775 241.149 331.299 243.517 328.299C245.885 325.298 247.604 321.839 248.565 318.139L278.031 204.558C293.029 178.375 317.619 154.807 338.308 135.755L316.741 116.176C307.463 107.752 306.768 93.3473 315.19 84.0687Z" fill="white"/>
<path d="M511.113 124.277C510.389 122.074 509.239 120.036 507.727 118.278C506.216 116.52 504.372 115.077 502.303 114.032C500.233 112.987 497.978 112.36 495.666 112.187C493.354 112.014 491.031 112.298 488.829 113.023L404.053 140.894L343.882 86.2774C340.413 83.1468 335.845 81.5192 331.178 81.7515C326.511 81.9837 322.126 84.0568 318.985 87.5163C315.845 90.9758 314.203 95.5395 314.422 100.207C314.64 104.875 316.7 109.265 320.15 112.416L387.936 173.944C390.247 176.042 393.073 177.49 396.126 178.14C399.179 178.79 402.35 178.619 405.315 177.645L499.86 146.561C504.307 145.098 507.991 141.928 510.101 137.749C512.212 133.57 512.576 128.724 511.113 124.277Z" fill="white"/>
</svg>
