<svg width="512" height="466" viewBox="0 0 512 466" fill="none" xmlns="http://www.w3.org/2000/svg">
<path d="M121 45.5H45C36.709 45.5 30 52.209 30 60.5C30 68.791 36.709 75.5 45 75.5H121C129.291 75.5 136 68.791 136 60.5C136 52.209 129.291 45.5 121 45.5Z" fill="#CCDD47"/>
<path d="M121 165.5H45C36.709 165.5 30 172.209 30 180.5C30 188.791 36.709 195.5 45 195.5H121C129.291 195.5 136 188.791 136 180.5C136 172.209 129.291 165.5 121 165.5Z" fill="#CCDD47"/>
<path d="M91 105.5H15C6.709 105.5 0 112.209 0 120.5C0 128.791 6.709 135.5 15 135.5H91C99.291 135.5 106 128.791 106 120.5C106 112.209 99.291 105.5 91 105.5Z" fill="#CCDD47"/>
<path d="M482 180.5H391V120.5C391 94.154 358.771 80.282 339.78 99.298L219.789 219.289C208.07 231.008 208.07 249.992 219.789 261.711L288.578 330.5L204.789 414.289C193.07 426.008 193.07 444.992 204.789 456.711C216.507 468.429 235.492 468.43 247.211 456.711L352.211 351.711C363.93 339.992 363.93 321.008 352.211 309.289L283.422 240.5L331 192.922V210.5C331 227.067 344.433 240.5 361 240.5H482C498.567 240.5 512 227.067 512 210.5C512 193.933 498.567 180.5 482 180.5Z" fill="#CCDD47"/>
<path d="M280.14 28.04C268.216 20.115 252.396 21.683 242.288 31.79L159.788 114.29C148.069 126.009 148.069 144.993 159.788 156.712C171.507 168.431 190.492 168.43 202.211 156.711L267.323 91.599L289.257 107.399L318.563 78.093C323.465 73.191 329.247 69.386 335.57 66.415L280.14 28.04Z" fill="#CCDD47"/>
<path d="M198.578 282.922C190.977 275.321 185.903 265.966 183.228 255.85L24.7888 414.289C13.0698 426.008 13.0698 444.992 24.7888 456.711C36.5068 468.429 55.4918 468.43 67.2108 456.711L219.789 304.133L198.578 282.922Z" fill="#CCDD47"/>
<path d="M406 90.5C430.853 90.5 451 70.3528 451 45.5C451 20.6472 430.853 0.5 406 0.5C381.147 0.5 361 20.6472 361 45.5C361 70.3528 381.147 90.5 406 90.5Z" fill="#CCDD47"/>
</svg>
