<svg width="270" height="202" viewBox="0 0 270 202" fill="none" xmlns="http://www.w3.org/2000/svg">
<path d="M81.3532 140.284C71.7816 140.284 63.1525 134.976 58.8324 126.448C54.501 117.864 55.3426 107.765 61.0317 100.056L126.372 11.241H30.8581C13.8469 11.241 0 25.0766 0 42.0991V148.7C0 165.722 13.8469 179.558 30.8581 179.558H87.2667L96.0304 140.284H81.3532Z" fill="#CCDD47"/>
<path d="M249.569 44.9044H246.865V42.0991C246.865 25.0766 233.018 11.241 216.007 11.241H184.778C184.677 12.1836 184.599 13.1374 184.386 14.0799L173.467 61.7361H190.759C200.421 61.7361 209.083 67.111 213.37 75.7625C217.656 84.3916 216.703 94.5355 210.879 102.233L152.304 179.558H216.007C233.018 179.558 246.865 165.722 246.865 148.7V145.895H249.569C260.398 145.895 269.206 137.086 269.206 126.258V64.5414C269.206 53.713 260.398 44.9044 249.569 44.9044Z" fill="#CCDD47"/>
<path d="M110.001 202C108.811 202 107.611 201.753 106.466 201.226C102.875 199.565 100.934 195.615 101.787 191.755L117.025 123.452H81.3532C78.1776 123.452 75.2714 121.668 73.8463 118.829C72.4212 116.001 72.6905 112.601 74.5756 110.043L153 3.44207C155.345 0.221601 159.643 -0.911733 163.29 0.782658C166.914 2.44339 168.878 6.41567 167.98 10.3094L152.349 78.5675H190.759C193.957 78.5675 196.875 80.3742 198.289 83.2355C199.714 86.0969 199.388 89.5194 197.458 92.0666L116.7 198.667C115.073 200.822 112.57 202 110.001 202Z" fill="#CCDD47"/>
</svg>
