<svg width="512" height="503" viewBox="0 0 512 503" fill="none" xmlns="http://www.w3.org/2000/svg">
<path d="M448 283.429C448 303.625 431.625 320 411.429 320C391.232 320 374.857 303.625 374.857 283.429C374.857 263.232 391.232 246.857 411.429 246.857C431.625 246.857 448 263.232 448 283.429ZM137.143 283.429C137.143 303.625 120.768 320 100.571 320C80.3749 320 64 303.625 64 283.429C64 263.232 80.3749 246.857 100.571 246.857C120.768 246.857 137.143 263.232 137.143 283.429ZM292.571 246.857C292.571 267.054 276.197 283.429 256 283.429C235.803 283.429 219.429 267.054 219.429 246.857C219.429 226.661 235.803 210.286 256 210.286C276.197 210.286 292.571 226.661 292.571 246.857ZM146.541 493.714C140.465 485.86 137.16 476.215 137.143 466.286V374.857C137.184 365.606 138.786 356.428 141.88 347.71C140.309 347.602 138.75 347.429 137.143 347.429H64C51.162 347.392 38.6167 351.262 28.0309 358.526C19.404 364.395 12.3411 372.282 7.45602 381.502C2.57091 390.721 0.0114124 400.995 0 411.429L0 448C0.0161475 456.736 2.53068 465.284 7.2469 472.638C11.9631 479.991 18.6842 485.841 26.6171 489.499C29.7887 491 33.1315 492.108 36.5714 492.8V393.143H54.8571V493.714H146.541ZM155.71 502.857C155.611 502.785 155.531 502.691 155.429 502.621V502.857H155.71ZM349.067 344.803C344.165 335.651 337.134 327.812 328.567 321.946C327.717 321.316 326.825 320.745 325.897 320.237C315.863 314.103 304.331 310.857 292.571 310.857H219.429C184.08 310.857 155.429 339.509 155.429 374.857V466.286C155.429 481.433 167.71 493.714 182.857 493.714H192V365.714H210.286V493.714H301.714V365.714H320V493.714H329.143C344.29 493.714 356.571 481.433 356.571 466.286V374.857C356.575 364.375 353.997 354.054 349.067 344.803ZM483.995 358.545C473.404 351.271 460.849 347.394 448 347.429H374.857C373.259 347.429 371.701 347.602 370.129 347.71C373.218 356.429 374.817 365.607 374.857 374.857V466.286C374.84 476.215 371.535 485.86 365.459 493.714H457.143V393.143H475.429V492.8C478.816 492.121 482.107 491.028 485.227 489.545C493.197 485.908 499.956 480.06 504.702 472.696C509.448 465.332 511.98 456.761 512 448V411.429C511.989 401 509.432 390.732 504.552 381.516C499.671 372.3 492.615 364.415 483.995 358.545Z" fill="#CCDD47"/>
<path d="M256 118.857C237.603 118.821 219.493 123.421 203.343 132.233C187.193 141.044 173.524 153.782 163.597 169.272C153.67 184.761 147.806 202.502 146.546 220.856C145.286 239.21 148.671 257.585 156.388 274.286H208.567C195.174 251.232 200.295 221.893 220.701 204.737C241.107 187.585 270.892 187.585 291.299 204.737C311.705 221.893 316.826 251.232 303.433 274.286H355.656C363.376 257.582 366.761 239.202 365.5 220.844C364.238 202.485 358.37 184.741 348.438 169.25C338.506 153.76 324.83 141.022 308.673 132.214C292.517 123.406 274.401 118.813 256 118.857Z" fill="#CCDD47"/>
<path d="M475.429 192H426.057L424.281 185.134C420.243 169.424 413.963 154.378 405.634 140.459L401.974 134.344L437.026 99.2274C437.872 98.3855 438.543 97.3848 439.001 96.2828C439.459 95.1808 439.695 93.9991 439.695 92.8057C439.695 91.6123 439.459 90.4307 439.001 89.3286C438.543 88.2266 437.872 87.2259 437.026 86.384L398.201 47.5452C396.477 45.899 394.184 44.9805 391.8 44.9805C389.415 44.9805 387.123 45.899 385.398 47.5452L350.281 82.6606L344.166 79.0034C330.229 70.6707 315.165 64.3865 299.438 60.344L292.572 58.5577V9.14286C292.572 6.71802 291.608 4.3925 289.894 2.67788C288.179 0.963263 285.854 0 283.429 0H228.572C226.147 0 223.821 0.963263 222.107 2.67788C220.392 4.3925 219.429 6.71802 219.429 9.14286V58.5143L212.562 60.2903C196.852 64.3306 181.804 70.6077 167.88 78.9292L161.764 82.5897L126.656 47.5452C124.93 45.8867 122.628 44.9604 120.234 44.9604C117.84 44.9604 115.539 45.8867 113.813 47.5452L74.9739 86.3703C74.1272 87.2133 73.4552 88.2151 72.9963 89.3182C72.5374 90.4213 72.3006 91.6041 72.2996 92.7989C72.2996 95.2149 73.263 97.5269 74.9739 99.2274L110.089 134.344L106.432 140.459C98.1023 154.378 91.8207 169.424 87.7807 185.134L85.9864 192H36.5716C34.1467 192 31.8212 192.963 30.1066 194.678C28.392 196.393 27.4287 198.718 27.4287 201.143V256C27.4287 258.425 28.392 260.75 30.1066 262.465C31.8212 264.18 34.1467 265.143 36.5716 265.143H48.9419C51.6229 257.514 55.9618 250.574 61.6465 244.823C67.3311 239.072 74.22 234.653 81.8173 231.883C89.414 229.112 97.5307 228.06 105.583 228.803C113.635 229.545 121.422 232.064 128.384 236.178C128.237 233.647 128 231.138 128 228.571C128 157.88 185.309 100.571 256 100.571C326.692 100.571 384 157.88 384 228.571C384 231.138 383.764 233.647 383.616 236.178C390.578 232.064 398.365 229.545 406.417 228.803C414.47 228.06 422.586 229.112 430.183 231.883C437.78 234.653 444.669 239.072 450.354 244.823C456.038 250.574 460.377 257.514 463.058 265.143H475.429C477.854 265.143 480.179 264.18 481.894 262.465C483.608 260.75 484.572 258.425 484.572 256V201.143C484.572 198.718 483.608 196.393 481.894 194.678C480.179 192.963 477.854 192 475.429 192Z" fill="#CCDD47"/>
</svg>
