<svg width="512" height="512" viewBox="0 0 512 512" fill="none" xmlns="http://www.w3.org/2000/svg">
<path d="M255.995 127.998C291.341 127.998 319.994 99.3447 319.994 63.999C319.994 28.6533 291.341 0 255.995 0C220.649 0 191.996 28.6533 191.996 63.999C191.996 99.3447 220.649 127.998 255.995 127.998Z" fill="#CCDD47"/>
<path d="M380.385 465.702L301.57 495.26L340.764 509.958C357.632 516.221 375.832 507.543 381.966 491.225C385.231 482.518 384.265 473.399 380.385 465.702Z" fill="#CCDD47"/>
<path d="M107.238 354.024C90.7232 347.899 72.2542 356.212 66.0362 372.757C59.8332 389.304 68.2242 407.741 84.7692 413.959L119.292 426.904L210.435 392.721L107.238 354.024Z" fill="#CCDD47"/>
<path d="M445.964 372.758C439.745 356.211 421.277 347.899 404.762 354.025L148.767 450.023C132.22 456.242 123.83 474.678 130.033 491.225C136.166 507.538 154.362 516.223 171.235 509.958L427.23 413.96C443.778 407.742 452.168 389.305 445.964 372.758Z" fill="#CCDD47"/>
<path d="M479.996 255.995H403.779L348.624 145.685C342.892 134.232 331.232 127.707 319.215 127.998H256H192.782C180.767 127.707 169.122 134.233 163.377 145.685L108.222 255.995H32.0051C14.3341 255.995 0.00610352 270.323 0.00610352 287.994C0.00610352 305.665 14.3341 319.993 32.0051 319.993H128.003C140.128 319.993 151.206 313.149 156.627 302.306L192.001 231.558V351.638L255.998 375.635L319.999 351.631V231.558L355.373 302.306C360.795 313.15 371.873 319.993 383.997 319.993H479.995C497.666 319.993 511.994 305.665 511.994 287.994C511.994 270.323 497.667 255.995 479.996 255.995Z" fill="#CCDD47"/>
</svg>
