<svg width="18" height="14" viewBox="0 0 18 14" fill="none" xmlns="http://www.w3.org/2000/svg">
<path d="M8.25892 13.1131C8.3415 13.2331 8.45198 13.3311 8.58087 13.3989C8.70976 13.4666 8.85318 13.502 8.99878 13.502C9.14438 13.502 9.28781 13.4666 9.41669 13.3989C9.54558 13.3311 9.65607 13.2331 9.73864 13.1131L17.8393 1.41221C17.933 1.27725 17.988 1.11918 17.9983 0.95516C18.0085 0.791144 17.9736 0.62746 17.8973 0.481892C17.8211 0.336325 17.7064 0.21444 17.5657 0.129483C17.425 0.0445247 17.2637 -0.00025773 17.0994 1.11578e-06H0.898146C0.734192 0.000678337 0.573525 0.0460367 0.433422 0.131198C0.293319 0.216359 0.179082 0.338102 0.102995 0.483333C0.0269087 0.628564 -0.00814848 0.791789 0.00159384 0.955454C0.0113362 1.11912 0.0655094 1.27703 0.158288 1.41221L8.25892 13.1131Z" fill="#CCDD47"/>
</svg>
