<svg width="480" height="480" viewBox="0 0 480 480" fill="none" xmlns="http://www.w3.org/2000/svg">
<path d="M240 480C287.468 480 333.869 465.924 373.337 439.553C412.805 413.181 443.567 375.698 461.732 331.844C479.897 287.99 484.65 239.734 475.389 193.178C466.129 146.623 443.271 103.859 409.706 70.294C364.697 25.2852 303.652 -0.000519273 240 -0.000518799C176.348 -0.000518325 115.303 25.2852 70.294 70.294C25.2852 115.303 -0.000487807 176.348 -0.000488281 240C-0.000488755 303.652 25.2852 364.697 70.294 409.706C92.5284 432.062 118.976 449.786 148.106 461.852C177.236 473.918 208.47 480.086 240 480ZM81.608 81.608C123.616 39.5998 180.592 15.9999 240 15.9999C299.409 15.9999 356.384 39.5998 398.392 81.608C440.4 123.616 464 180.591 464 240C464 299.409 440.4 356.384 398.392 398.392C356.384 440.4 299.409 464 240 464C180.592 464 123.616 440.4 81.608 398.392C39.5999 356.384 15.9999 299.409 15.9999 240C15.9999 180.591 39.5999 123.616 81.608 81.608Z" fill="#CCDD47"/>
<path d="M240 448C354.691 448 448 354.691 448 240C448 125.309 354.691 32 240 32C125.309 32 32 125.309 32 240C32 354.691 125.309 448 240 448ZM240 48C345.869 48 432 134.131 432 240C432 345.869 345.869 432 240 432C134.131 432 48 345.869 48 240C48 134.131 134.131 48 240 48Z" fill="#CCDD47"/>
<path d="M109.27 369.423C109.322 369.484 109.377 369.541 109.43 369.601C109.53 369.71 109.62 369.824 109.725 369.929C112.988 373.213 116.425 376.414 119.95 379.445C120.304 379.76 120.685 380.043 121.088 380.291C150.708 405.504 187.584 420.634 226.376 423.491C228.232 423.826 230.114 423.996 232 424C232.789 424 233.569 423.961 234.344 423.9C236.223 423.957 238.107 424 240 424C267.359 424.003 294.373 417.896 319.07 406.124C343.767 394.352 365.523 377.213 382.749 355.959C382.81 355.901 382.873 355.847 382.932 355.787C383.134 355.587 383.324 355.376 383.503 355.156L383.511 355.147L383.551 355.097C389.206 348.067 394.332 340.627 398.886 332.838C398.919 332.781 398.944 332.722 398.976 332.664C399.046 332.538 399.112 332.41 399.176 332.28C399.227 332.18 399.276 332.07 399.322 331.964C415.525 304.026 424.039 272.296 424 240C424 238.107 423.962 236.223 423.9 234.344C423.956 233.569 424 232.789 424 232C424 230.114 423.832 228.232 423.5 226.376C420.64 187.563 405.495 150.67 380.259 121.043C379.823 120.336 379.279 119.701 378.647 119.162C376.099 116.243 373.462 113.406 370.735 110.653C370.256 110.003 369.68 109.43 369.029 108.953C334.672 74.998 288.305 55.9693 240 56C138.542 56 56.0001 138.542 56.0001 240C55.9708 266.245 61.5896 292.19 72.4751 316.071C72.6714 316.664 72.9369 317.232 73.2661 317.763C75.8828 323.351 78.7795 328.804 81.9451 334.1C82.2323 334.769 82.6102 335.396 83.0681 335.962C90.4234 347.939 99.1177 359.039 108.983 369.05C109.076 369.178 109.169 369.3 109.27 369.423ZM136 368C133.886 367.999 131.793 367.572 129.847 366.744C127.053 364.312 124.342 361.79 121.713 359.179C120.152 356.068 119.649 352.532 120.28 349.109C120.91 345.686 122.641 342.562 125.208 340.211C127.775 337.861 131.039 336.412 134.505 336.085C137.97 335.758 141.448 336.57 144.41 338.399C147.372 340.227 149.656 342.972 150.916 346.217C152.176 349.462 152.343 353.029 151.392 356.378C150.441 359.726 148.423 362.673 145.645 364.77C142.867 366.868 139.481 368.002 136 368ZM149.065 381.2C150.141 380.717 151.189 380.176 152.205 379.577C152.358 380.941 152.599 382.294 152.926 383.627C151.626 382.837 150.339 382.028 149.065 381.2ZM160.344 331.265C159.575 327.567 160.141 323.717 161.939 320.396C163.738 317.075 166.654 314.498 170.171 313.122C173.688 311.745 177.579 311.658 181.154 312.876C184.729 314.094 187.758 316.538 189.703 319.775C191.648 323.012 192.385 326.833 191.783 330.562C191.18 334.29 189.277 337.685 186.411 340.144C183.545 342.604 179.901 343.97 176.124 343.999C172.348 344.029 168.683 342.721 165.778 340.307C164.479 337.013 162.643 333.958 160.344 331.265ZM184 392C180.836 392 177.742 391.062 175.111 389.304C172.48 387.545 170.429 385.047 169.218 382.123C168.007 379.199 167.69 375.982 168.308 372.879C168.925 369.775 170.449 366.924 172.686 364.686C174.924 362.449 177.775 360.925 180.879 360.307C183.982 359.69 187.199 360.007 190.123 361.218C193.047 362.429 195.546 364.48 197.304 367.111C199.062 369.742 200 372.835 200 376C199.995 380.242 198.308 384.309 195.308 387.308C192.309 390.308 188.242 391.995 184 392ZM200.629 403.329C201.029 403.087 201.421 402.836 201.804 402.576C201.939 402.96 202.083 403.34 202.232 403.718C201.7 403.594 201.164 403.458 200.629 403.329ZM200 296C200 292.835 200.938 289.742 202.697 287.111C204.455 284.48 206.954 282.429 209.877 281.218C212.801 280.007 216.018 279.69 219.122 280.307C222.225 280.925 225.076 282.449 227.314 284.686C229.551 286.924 231.075 289.775 231.693 292.879C232.31 295.982 231.993 299.199 230.782 302.123C229.571 305.047 227.52 307.545 224.889 309.304C222.258 311.062 219.165 312 216 312C211.758 311.995 207.691 310.308 204.692 307.308C201.692 304.309 200.005 300.242 200 296ZM208 344C208 340.835 208.938 337.742 210.697 335.111C212.455 332.48 214.954 330.429 217.877 329.218C220.801 328.007 224.018 327.69 227.122 328.307C230.225 328.925 233.076 330.449 235.314 332.686C237.551 334.924 239.075 337.775 239.693 340.879C240.31 343.982 239.993 347.199 238.782 350.123C237.571 353.047 235.52 355.545 232.889 357.304C230.258 359.062 227.165 360 224 360C219.758 359.995 215.691 358.308 212.692 355.308C209.692 352.309 208.005 348.242 208 344ZM233.894 407.877C232.083 407.81 230.279 407.717 228.481 407.597C224.571 406.715 221.135 404.398 218.852 401.103C216.569 397.809 215.605 393.778 216.152 389.808C216.698 385.837 218.715 382.216 221.803 379.661C224.891 377.106 228.826 375.804 232.829 376.011C236.831 376.218 240.611 377.919 243.419 380.779C246.227 383.639 247.859 387.449 247.993 391.455C248.127 395.46 246.753 399.371 244.142 402.412C241.531 405.453 237.874 407.403 233.894 407.877ZM252.58 367.522C251.293 366.435 249.922 365.452 248.48 364.58C249.567 363.292 250.55 361.922 251.422 360.48C252.71 361.567 254.081 362.55 255.522 363.422C254.436 364.71 253.452 366.08 252.58 367.522ZM256 336C256 332.835 256.938 329.742 258.697 327.111C260.455 324.48 262.954 322.429 265.877 321.218C268.801 320.007 272.018 319.69 275.122 320.307C278.225 320.925 281.076 322.449 283.314 324.686C285.551 326.924 287.075 329.775 287.693 332.879C288.31 335.982 287.993 339.199 286.782 342.123C285.571 345.047 283.52 347.545 280.889 349.304C278.258 351.062 275.165 352 272 352C267.758 351.995 263.691 350.308 260.692 347.308C257.692 344.309 256.005 340.242 256 336ZM280 400C276.836 400 273.742 399.062 271.111 397.304C268.48 395.545 266.429 393.047 265.218 390.123C264.007 387.199 263.69 383.982 264.308 380.879C264.925 377.775 266.449 374.924 268.686 372.686C270.924 370.449 273.775 368.925 276.879 368.307C279.982 367.69 283.199 368.007 286.123 369.218C289.047 370.429 291.546 372.48 293.304 375.111C295.062 377.742 296 380.835 296 384C295.995 388.242 294.308 392.309 291.308 395.308C288.309 398.308 284.242 399.995 280 400ZM310.908 392.279C311.321 390.737 311.618 389.166 311.795 387.579C313.194 388.404 314.654 389.121 316.162 389.723C314.429 390.605 312.675 391.453 310.908 392.279ZM328 376C324.836 376 321.742 375.062 319.111 373.304C316.48 371.545 314.429 369.047 313.218 366.123C312.007 363.199 311.69 359.982 312.308 356.879C312.925 353.775 314.449 350.924 316.686 348.686C318.924 346.449 321.775 344.925 324.879 344.307C327.982 343.69 331.199 344.007 334.123 345.218C337.047 346.429 339.546 348.48 341.304 351.111C343.062 353.742 344 356.835 344 360C343.995 364.242 342.308 368.309 339.308 371.308C336.309 374.308 332.242 375.995 328 376ZM372.326 343.393C369.158 344.285 365.793 344.178 362.688 343.088C359.583 341.997 356.889 339.976 354.975 337.299C353.061 334.622 352.018 331.42 351.99 328.129C351.962 324.838 352.949 321.619 354.817 318.91C356.685 316.2 359.343 314.133 362.429 312.989C365.515 311.845 368.878 311.681 372.061 312.519C375.244 313.356 378.091 315.154 380.214 317.669C382.337 320.183 383.633 323.291 383.926 326.569C380.403 332.406 376.529 338.024 372.326 343.393ZM356.739 263.264C355.206 263.749 353.608 263.997 352 264C349.539 264.004 347.111 263.441 344.903 262.353C342.696 261.266 340.769 259.684 339.272 257.731C337.775 255.777 336.75 253.505 336.274 251.09C335.799 248.676 335.887 246.184 336.531 243.809C337.176 241.434 338.36 239.24 339.99 237.397C341.621 235.554 343.655 234.112 345.934 233.184C348.213 232.255 350.675 231.864 353.129 232.042C355.584 232.22 357.964 232.961 360.085 234.209C360.54 240.891 363.09 247.26 367.372 252.409C367.34 252.52 367.301 252.629 367.267 252.739C362.985 255.378 359.38 258.983 356.739 263.264ZM384 296C380.836 296 377.742 295.062 375.111 293.304C372.48 291.545 370.429 289.047 369.218 286.123C368.007 283.199 367.69 279.982 368.308 276.879C368.925 273.775 370.449 270.924 372.686 268.686C374.924 266.449 377.775 264.925 380.879 264.307C383.982 263.69 387.199 264.007 390.123 265.218C393.047 266.429 395.546 268.48 397.304 271.111C399.062 273.742 400 276.835 400 280C399.995 284.242 398.308 288.309 395.308 291.308C392.309 294.308 388.242 295.995 384 296ZM407.877 233.894C407.403 237.874 405.453 241.531 402.412 244.142C399.371 246.753 395.461 248.127 391.455 247.993C387.449 247.859 383.639 246.227 380.779 243.419C377.92 240.61 376.218 236.831 376.011 232.829C375.804 228.826 377.106 224.891 379.661 221.803C382.216 218.715 385.837 216.698 389.808 216.152C393.778 215.605 397.809 216.569 401.104 218.852C404.398 221.135 406.715 224.571 407.597 228.481C407.72 230.278 407.814 232.082 407.877 233.894ZM403.329 200.629C403.458 201.164 403.594 201.695 403.718 202.229C403.34 202.08 402.96 201.936 402.576 201.801C402.835 201.417 403.086 201.026 403.329 200.629ZM381.2 149.065C382.025 150.341 382.834 151.628 383.627 152.926C382.294 152.599 380.941 152.358 379.577 152.205C380.176 151.189 380.718 150.141 381.2 149.065ZM376 168C379.165 168 382.258 168.938 384.889 170.696C387.52 172.455 389.571 174.953 390.782 177.877C391.993 180.801 392.31 184.018 391.693 187.121C391.075 190.225 389.551 193.076 387.314 195.314C385.076 197.551 382.225 199.075 379.122 199.693C376.018 200.31 372.801 199.993 369.877 198.782C366.954 197.571 364.455 195.52 362.697 192.889C360.938 190.258 360 187.165 360 184C360.005 179.758 361.692 175.691 364.692 172.692C367.691 169.692 371.758 168.005 376 168ZM336.344 132.735C338.643 130.042 340.479 126.987 341.778 123.693C344.17 121.702 347.091 120.454 350.182 120.103C353.274 119.751 356.401 120.311 359.178 121.713C361.787 124.341 364.309 127.052 366.743 129.847C367.572 131.793 367.999 133.885 368 136C368.005 138.243 367.538 140.461 366.631 142.512C365.723 144.562 364.394 146.399 362.731 147.903C361.067 149.407 359.106 150.545 356.975 151.242C354.843 151.939 352.589 152.18 350.359 151.95C348.128 151.72 345.971 151.024 344.026 149.906C342.082 148.789 340.395 147.275 339.073 145.463C337.752 143.651 336.826 141.582 336.356 139.389C335.886 137.196 335.882 134.929 336.344 132.735ZM331.23 160.314C333.928 162.624 336.992 164.469 340.296 165.773C342.621 168.571 343.922 172.077 343.986 175.714C344.049 179.351 342.872 182.901 340.646 185.778C338.421 188.655 335.282 190.688 331.746 191.542C328.21 192.395 324.489 192.018 321.197 190.472C317.904 188.926 315.237 186.304 313.635 183.038C312.033 179.773 311.592 176.059 312.384 172.509C313.177 168.959 315.156 165.785 317.995 163.511C320.834 161.237 324.363 159.999 328 160C329.025 160 330.048 160.097 331.055 160.29C331.114 160.3 331.172 160.3 331.23 160.314ZM311.679 148.49C311.891 147.003 311.998 145.502 312 144C314.953 143.999 317.891 143.589 320.73 142.78C320.872 143.438 321.038 144.087 321.22 144.73C317.857 145.458 314.635 146.728 311.679 148.49ZM312 96C315.165 96 318.258 96.9384 320.889 98.6965C323.52 100.455 325.571 102.953 326.782 105.877C327.993 108.801 328.31 112.018 327.693 115.121C327.075 118.225 325.551 121.076 323.314 123.314C321.076 125.551 318.225 127.075 315.122 127.693C312.018 128.31 308.801 127.993 305.877 126.782C302.954 125.571 300.455 123.52 298.697 120.889C296.938 118.258 296 115.165 296 112C296.005 107.758 297.692 103.691 300.692 100.692C303.691 97.6924 307.758 96.005 312 96ZM272 88C272.004 83.3399 270.983 78.736 269.01 74.514C279.268 76.3075 289.335 79.0596 299.079 82.734C293.408 85.2427 288.587 89.3431 285.2 94.538C281.813 99.7328 280.007 105.799 280 112C273.659 111.994 267.46 113.883 262.2 117.424C261.644 115.835 260.962 114.292 260.162 112.81C263.847 109.808 266.821 106.025 268.868 101.735C270.915 97.4445 271.985 92.7536 272 88ZM280 160C275.757 160 271.687 158.314 268.686 155.314C265.686 152.313 264 148.243 264 144C264 139.757 265.686 135.687 268.686 132.686C271.687 129.686 275.757 128 280 128C281.608 128.003 283.206 128.251 284.739 128.736C287.378 133.017 290.983 136.622 295.264 139.261C295.749 140.794 295.997 142.392 296 144C295.995 148.242 294.308 152.309 291.308 155.308C288.309 158.308 284.242 159.995 280 160ZM296 192C296 195.165 295.062 198.258 293.304 200.889C291.546 203.52 289.047 205.571 286.123 206.782C283.199 207.993 279.982 208.31 276.879 207.693C273.775 207.075 270.924 205.551 268.686 203.314C266.449 201.076 264.925 198.225 264.308 195.121C263.69 192.018 264.007 188.801 265.218 185.877C266.429 182.953 268.48 180.455 271.111 178.696C273.742 176.938 276.836 176 280 176C284.242 176.005 288.309 177.692 291.308 180.692C294.308 183.691 295.995 187.758 296 192ZM240 72C243.397 71.9973 246.706 73.0764 249.448 75.081C252.19 77.0856 254.222 79.9114 255.25 83.1488C256.278 86.3862 256.248 89.8668 255.165 93.086C254.082 96.3052 252.001 99.0958 249.225 101.053C242.48 96.7171 234.347 95.0878 226.452 96.491C224.845 93.9509 223.995 91.0058 224 88C224.005 83.7581 225.692 79.6913 228.692 76.6919C231.691 73.6924 235.758 72.005 240 72ZM232 112C235.165 112 238.258 112.938 240.889 114.696C243.52 116.455 245.571 118.953 246.782 121.877C247.993 124.801 248.31 128.018 247.693 131.121C247.075 134.225 245.551 137.076 243.314 139.314C241.076 141.551 238.225 143.075 235.122 143.693C232.018 144.31 228.801 143.993 225.877 142.782C222.954 141.571 220.455 139.52 218.697 136.889C216.938 134.258 216 131.165 216 128C216.005 123.758 217.692 119.691 220.692 116.692C223.691 113.692 227.758 112.005 232 112ZM232 160C235.165 160 238.258 160.938 240.889 162.696C243.52 164.455 245.571 166.953 246.782 169.877C247.993 172.801 248.31 176.018 247.693 179.121C247.075 182.225 245.551 185.076 243.314 187.314C241.076 189.551 238.225 191.075 235.122 191.693C232.018 192.31 228.801 191.993 225.877 190.782C222.954 189.571 220.455 187.52 218.697 184.889C216.938 182.258 216 179.165 216 176C216.005 171.758 217.692 167.691 220.692 164.692C223.691 161.692 227.758 160.005 232 160ZM192 80C195.165 80 198.258 80.9384 200.889 82.6965C203.52 84.4546 205.571 86.9535 206.782 89.8771C207.993 92.8007 208.31 96.0178 207.693 99.1215C207.075 102.225 205.551 105.076 203.314 107.314C201.076 109.551 198.225 111.075 195.122 111.693C192.018 112.31 188.801 111.993 185.877 110.782C182.954 109.571 180.455 107.52 178.697 104.889C176.938 102.258 176 99.1645 176 96C176.005 91.7581 177.692 87.6913 180.692 84.6919C183.691 81.6924 187.758 80.005 192 80ZM192 128C194.844 128.002 197.635 128.765 200.085 130.209C200.54 136.891 203.091 143.26 207.373 148.409C206.553 151.269 204.953 153.843 202.751 155.843C200.549 157.844 197.832 159.19 194.907 159.732C191.982 160.274 188.964 159.99 186.192 158.911C183.419 157.833 181.002 156.003 179.213 153.627C177.423 151.25 176.331 148.422 176.059 145.46C175.788 142.497 176.348 139.518 177.676 136.856C179.004 134.194 181.048 131.955 183.579 130.391C186.109 128.827 189.025 127.999 192 128ZM192 176C194.709 175.999 197.406 175.65 200.026 174.961C200.015 175.307 200 175.652 200 176C199.998 181.798 201.571 187.487 204.553 192.46C207.534 197.433 211.811 201.501 216.926 204.231C222.041 206.961 227.802 208.249 233.592 207.957C239.383 207.666 244.985 205.806 249.8 202.576C251.991 208.837 256.074 214.262 261.484 218.1C266.894 221.938 273.363 224 279.996 224C286.629 224 293.098 221.938 298.508 218.1C303.918 214.262 308.001 208.837 310.192 202.576C315.95 206.443 322.81 208.33 329.736 207.952C336.661 207.573 343.275 204.948 348.576 200.476C352.43 206.867 358.386 211.718 365.424 214.2C364.6 215.427 363.861 216.709 363.214 218.038C358.826 216.392 354.129 215.73 349.457 216.099C344.785 216.468 340.25 217.859 336.175 220.174C332.099 222.488 328.582 225.67 325.871 229.493C323.161 233.317 321.323 237.689 320.488 242.301C319.654 246.913 319.842 251.652 321.041 256.183C322.239 260.714 324.419 264.927 327.424 268.523C330.43 272.119 334.19 275.011 338.436 276.994C342.683 278.977 347.313 280.003 352 280C351.994 286.341 353.883 292.54 357.424 297.8C351.168 299.999 345.747 304.084 341.91 309.493C338.073 314.902 336.008 321.368 336 328C336 328.342 336.015 328.68 336.026 329.02C330.262 327.528 324.196 327.675 318.512 329.445C312.827 331.216 307.75 334.538 303.852 339.039C303.952 338.039 304 337.025 304 336C304.002 329.004 301.71 322.2 297.475 316.631C293.241 311.061 287.298 307.034 280.557 305.164C273.815 303.294 266.646 303.686 260.148 306.28C253.651 308.873 248.182 313.524 244.58 319.522C243.293 318.435 241.922 317.452 240.48 316.58C243.791 312.642 246.103 307.964 247.22 302.942C248.338 297.92 248.228 292.703 246.899 287.733C245.571 282.763 243.064 278.186 239.59 274.391C236.116 270.597 231.779 267.696 226.945 265.934C222.111 264.173 216.924 263.603 211.823 264.274C206.722 264.944 201.859 266.835 197.644 269.785C193.43 272.736 189.989 276.659 187.614 281.223C185.239 285.786 183.999 290.855 184 296C184 296.342 184.015 296.68 184.026 297.02C179.854 295.94 175.506 295.714 171.244 296.355C166.982 296.997 162.893 298.492 159.223 300.752C155.553 303.012 152.377 305.99 149.886 309.507C147.395 313.024 145.64 317.008 144.726 321.22C141.888 320.412 138.951 320.001 136 320C135.658 320 135.32 320.015 134.98 320.026C136.709 313.344 136.231 306.282 133.618 299.894C131.005 293.506 126.396 288.134 120.48 284.58C125.869 278.19 128.538 269.942 127.912 261.606C127.286 253.271 123.415 245.513 117.132 240C122.962 234.883 126.729 227.818 127.731 220.126C128.733 212.434 126.901 204.64 122.576 198.2C130.149 195.546 136.448 190.145 140.227 183.065C144.005 175.986 144.986 167.746 142.976 159.978C143.316 159.989 143.654 160.004 143.996 160.004C150.337 160.01 156.536 158.121 161.796 154.58C163.996 160.837 168.082 166.257 173.492 170.093C178.902 173.929 185.368 175.993 192 176ZM160.237 92.175C159.895 94.9381 159.923 97.7344 160.321 100.49C157.705 98.9312 154.879 97.7559 151.929 97C154.649 95.3153 157.418 93.707 160.237 92.175ZM144 112C147.165 112 150.258 112.938 152.889 114.696C155.52 116.455 157.571 118.953 158.782 121.877C159.993 124.801 160.31 128.018 159.693 131.121C159.075 134.225 157.551 137.076 155.314 139.314C153.076 141.551 150.225 143.075 147.122 143.693C144.018 144.31 140.801 143.993 137.877 142.782C134.954 141.571 132.455 139.52 130.697 136.889C128.938 134.258 128 131.165 128 128C128.005 123.758 129.692 119.691 132.692 116.692C135.691 113.692 139.758 112.005 144 112ZM112.155 131.135C112.316 132.785 112.605 134.421 113.02 136.026C112.68 136.015 112.342 136 112 136C110.642 136.003 109.285 136.092 107.938 136.267C109.308 134.526 110.719 132.82 112.155 131.135ZM112 152C115.165 152 118.258 152.938 120.889 154.696C123.52 156.455 125.571 158.953 126.782 161.877C127.993 164.801 128.31 168.018 127.693 171.121C127.075 174.225 125.551 177.076 123.314 179.314C121.076 181.551 118.225 183.075 115.122 183.693C112.018 184.31 108.801 183.993 105.877 182.782C102.954 181.571 100.455 179.52 98.6966 176.889C96.9385 174.258 96.0001 171.165 96.0001 168C96.0051 163.758 97.6925 159.691 100.692 156.692C103.691 153.692 107.758 152.005 112 152ZM82.7341 180.921C83.4876 182.624 84.3877 184.257 85.4241 185.804C83.608 186.444 81.8538 187.247 80.1831 188.204C80.9791 185.749 81.8294 183.322 82.7341 180.921ZM96.0001 200C99.1646 200 102.258 200.938 104.889 202.696C107.52 204.455 109.571 206.953 110.782 209.877C111.993 212.801 112.31 216.018 111.693 219.121C111.075 222.225 109.551 225.076 107.314 227.314C105.076 229.551 102.225 231.075 99.1216 231.693C96.0179 232.31 92.8008 231.993 89.8772 230.782C86.9536 229.571 84.4547 227.52 82.6966 224.889C80.9385 222.258 80.0001 219.165 80.0001 216C80.0051 211.758 81.6925 207.691 84.692 204.692C87.6915 201.692 91.7582 200.005 96.0001 200ZM72.0361 242.826C72.0201 241.885 72.0001 240.945 72.0001 240C72.0001 239.055 72.0201 238.115 72.0361 237.174C72.9205 238.174 73.8663 239.118 74.8681 240C73.8663 240.882 72.9205 241.826 72.0361 242.826ZM80.0001 264C80.0001 260.835 80.9385 257.742 82.6966 255.111C84.4547 252.48 86.9536 250.429 89.8772 249.218C92.8008 248.007 96.0179 247.69 99.1216 248.307C102.225 248.925 105.076 250.449 107.314 252.686C109.551 254.924 111.075 257.775 111.693 260.879C112.31 263.982 111.993 267.199 110.782 270.123C109.571 273.047 107.52 275.545 104.889 277.304C102.258 279.062 99.1646 280 96.0001 280C91.7582 279.995 87.6915 278.308 84.692 275.308C81.6925 272.309 80.0051 268.242 80.0001 264ZM95.4461 325.51C92.7608 320.989 90.2865 316.336 88.0231 311.553C88.1126 308.41 89.1263 305.364 90.9377 302.794C92.7491 300.225 95.2777 298.246 98.2074 297.105C101.137 295.965 104.338 295.713 107.41 296.382C110.482 297.051 113.289 298.61 115.479 300.865C117.67 303.12 119.147 305.971 119.727 309.061C120.306 312.151 119.962 315.343 118.737 318.239C117.512 321.134 115.461 323.604 112.84 325.341C110.219 327.077 107.144 328.002 104 328C100.969 328.009 97.999 327.145 95.4461 325.51Z" fill="#CCDD47"/>
</svg>
