<svg width="512" height="394" viewBox="0 0 512 394" fill="none" xmlns="http://www.w3.org/2000/svg">
<path d="M361.88 262.716L337.281 223.069C363.097 255.146 410.866 256.74 438.754 227.085C464.218 200.008 462.918 157.485 435.838 132.017C408.772 106.561 366.24 107.852 340.771 134.934C321.205 155.74 317.656 185.323 328.672 209.193L269.168 113.289L357.47 87.808C384.893 79.895 397.853 48.505 383.92 23.538C373.803 5.41 352.805 -3.232 332.861 2.524L199.177 41.1C164.516 51.103 148.994 91.395 168.026 122.071L208.432 187.194L137.569 231.163C222.822 233.122 284.42 259.079 361.88 262.716Z" fill="#CCDD47"/>
<path d="M19.1049 306.89C212.902 251.8 286.093 363.016 500.785 306.975C508.801 304.883 513.602 296.688 511.51 288.673C509.418 280.658 501.223 275.857 493.208 277.948C286.944 331.792 213.652 220.398 10.9019 278.033C2.93388 280.298 -1.69012 288.594 0.574878 296.563C2.84088 304.533 11.1399 309.155 19.1049 306.89Z" fill="#CCDD47"/>
<path d="M493.208 347.948C286.565 401.89 214.054 290.282 10.9019 348.033C2.93388 350.298 -1.69012 358.594 0.574878 366.563C2.83988 374.532 11.1389 379.156 19.1049 376.89C212.902 321.8 286.093 433.016 500.785 376.975C508.801 374.883 513.602 366.688 511.51 358.673C509.418 350.657 501.223 345.856 493.208 347.948Z" fill="#CCDD47"/>
</svg>
